# xmcd
#
# Track frame offsets:
#	150
#	17511
#	32623
#	47587
#	62150
#	78746
#	103857
#	121791
#	141461
#	169033
#	183878
#	203623
#	218618
#	235798
#	245932
#
# Disc length: 3439 seconds
#
# Revision: 1
# Processed by: cddbd v1.5.2PL0 Copyright (c) Steve Scherf et al.
# Submitted via: audiograbber 1.83.01
#
DISCID=cb0d6d0f
DTITLE=Nils Lofgren - The Loner - Nils Sings Neil
DYEAR=2008
DGENRE=Blues
TTITLE0=Birds
TTITLE1=Long May You Run
TTITLE2=Flying On The Ground
TTITLE3=I Am A Child
TTITLE4=Only Love Can Break Your Heart
TTITLE5=Harvest Moon
TTITLE6=Like A Hurricane
TTITLE7=The Loner
TTITLE8=Don't Be Denied
TTITLE9=World On A String
TTITLE10=Mr. Soul
TTITLE11=Winterlong
TTITLE12=On The Way Home
TTITLE13=Wonderin'
TTITLE14=Don't Cry No Tears
EXTD=
EXTT0=
EXTT1=
EXTT2=
EXTT3=
EXTT4=
EXTT5=
EXTT6=
EXTT7=
EXTT8=
EXTT9=
EXTT10=
EXTT11=
EXTT12=
EXTT13=
EXTT14=
PLAYORDER=
